<svg width="108" height="109" fill="none" xmlns="http://www.w3.org/2000/svg"><g clip-path="url(#clip0_859_812)" fill-rule="evenodd" clip-rule="evenodd" fill="#87C4EF" fill-opacity=".769"><path d="M54.492 4.06c21.65 27.057 11.281 63.226-9.595 91.869-.358.492-.28 1.15.176 1.466.456.316 1.119.175 1.476-.317 21.463-29.444 31.883-66.63 9.626-94.443-.346-.434-1.004-.467-1.47-.073-.466.391-.56 1.062-.213 1.498z"/><path d="M46.113 95.966c.28-1.86.658-4.195.694-4.46.956-7.194.765-14.046-.432-21.012-.096-.566-.64-.901-1.213-.75-.572.151-.957.735-.861 1.3 1.163 6.755 1.35 13.4.421 20.378-.054.407-.906 5.654-1 6.72-.041.438.07.685.102.74.158.302.39.419.59.471.225.058.628.059 1.093-.228.486-.3 1.359-1.158 1.595-1.358 3.57-3.008 7.324-6.655 11.405-9.373 3.891-2.592 8.086-4.34 12.727-3.693.565.079 1.13-.33 1.263-.91.133-.58-.22-1.115-.786-1.195-5.188-.723-9.893 1.162-14.242 4.058-4.057 2.703-7.801 6.294-11.356 9.312z"/></g><defs><clipPath id="clip0_859_812"><path fill="#fff" transform="rotate(-47.793 66.886 29.635)" d="M0 0h80.016v72.765H0z"/></clipPath></defs></svg>