<svg width="15" height="17" fill="none" xmlns="http://www.w3.org/2000/svg"><path fill-rule="evenodd" clip-rule="evenodd" d="M0 1.7C0 1.25.182.817.507.498A1.747 1.747 0 011.73 0h11.538c.46 0 .9.18 1.224.498.325.319.507.751.507 1.202v13.6c0 .45-.182.883-.507 1.202A1.747 1.747 0 0113.27 17H1.731c-.46 0-.9-.18-1.224-.498A1.685 1.685 0 010 15.3V1.7zm10.385 3.4c0 .751-.304 1.472-.845 2.003a2.911 2.911 0 01-2.04.83 2.911 2.911 0 01-2.04-.83A2.808 2.808 0 014.615 5.1V2.267H3.462V5.1c0 1.052.425 2.061 1.182 2.805A4.076 4.076 0 007.5 9.067a4.076 4.076 0 002.856-1.162A3.931 3.931 0 0011.539 5.1V2.267h-1.154V5.1z" fill="#101010"/></svg>