<svg width="11" height="12" fill="none" xmlns="http://www.w3.org/2000/svg"><path d="M5.5.5h-.162v.003C5.392.5 5.446.5 5.5.5z" fill="#C40C3A"/><path d="M5.5.5h-.162v.003C5.392.5 5.446.5 5.5.5z" fill="url(#paint0_linear_859_818)"/><path d="M.346 3.993l.025.017.007-.017H.346z" fill="#fff"/><path d="M2.568 10.654a5.501 5.501 0 005.863 0H2.568z" fill="#C40C3A"/><path d="M2.568 10.653h5.864a5.516 5.516 0 001.036-.846H1.531c.31.323.658.607 1.037.846z" fill="#fff"/><path d="M1.53 9.807h7.938c.25-.26.473-.543.667-.847H.865c.194.304.417.587.666.847z" fill="#C40C3A"/><path d="M.864 8.96h9.271c.172-.268.32-.55.443-.845H.422c.122.294.27.577.442.846z" fill="#fff"/><path d="M.422 8.115h10.156c.114-.274.206-.557.274-.846H.147c.069.289.16.572.275.846z" fill="#C40C3A"/><path d="M.147 7.269h10.705c.066-.278.11-.561.131-.847H.016c.022.286.066.569.131.847z" fill="#fff"/><path d="M6.517 5.59c-.38 0-.755-.004-1.128-.014h-.05v.836H.014v.01h10.969a5.53 5.53 0 000-.846h-3.34c-.372.01-.748.014-1.127.014z" fill="#C40C3A"/><path d="M10.983 5.577a5.41 5.41 0 00-.02-.211c-1.07.11-2.18.182-3.318.21h3.338zm-5.594-.001l-.05-.001v.001h.05z" fill="#fff"/><path d="M.121 5.576H.016c-.006.073-.01.147-.012.22h.042l.075-.22zm5.217 0h-.762l.075.22h.256L4.7 5.94l.079.23-.207-.143-.207.142.08-.23-.207-.14h.255l.076-.221H3.464l.075.22h.256l-.207.142.079.23-.207-.142-.207.142.08-.23-.207-.142h.256l.075-.22H2.352l.075.22h.256l-.207.142.08.23-.208-.142-.206.142.079-.23-.207-.142h.256l.075-.22H1.24l.075.22h.256l-.207.142.08.23-.207-.142-.207.142.079-.23-.207-.142h.256l.075-.22H.13l.075.22H.46l-.207.142.079.23-.207-.142-.123.085c.002.1.007.211.014.311h5.322v-.847z" fill="#2B3E75"/><path d="M.125 5.568l.003.009h1.105l.004-.01.003.01h1.105l.003-.01.003.01h1.106l.003-.01.003.01h1.106l.003-.01.004.01h.762v-.002c-.379-.01-.755-.024-1.127-.044l.012.037-.056-.039-.278-.016-.08.055.02-.058a46.1 46.1 0 01-.756-.052l.038.11-.177-.12-.053-.005-.183.126.047-.138c-.276-.024-.55-.05-.82-.08l.074.218-.207-.142-.206.142.079-.23-.028-.02a36.895 36.895 0 01-.68-.083l-.149.103.08.23-.207-.142-.207.142.079-.23-.207-.142h.256l.003-.01a38.265 38.265 0 01-.533-.079 5.609 5.609 0 00-.056.47H.12l.004-.01z" fill="#2B3E75"/><path d="M4.494 5.797h-.256l.207.142-.08.23.208-.143.206.142-.079-.23.207-.141h-.255l-.076-.22h-.007l-.075.22z" fill="#fff"/><path d="M4.57 5.579h.007l-.004-.012-.004.012zm-1.188.218h-.256l.207.142-.08.23.208-.143.206.142-.079-.23.207-.141H3.54l-.076-.22h-.007l-.075.22z" fill="#fff"/><path d="M3.457 5.579h.008l-.004-.012-.004.012zm-1.187.218h-.256l.207.142-.08.23.208-.143.206.142-.079-.23.207-.141h-.255l-.076-.22h-.007l-.075.22z" fill="#fff"/><path d="M2.345 5.579h.008l-.004-.012-.004.012zm-1.187.218H.902l.207.142-.08.23.208-.143.206.142-.079-.23.207-.141h-.255l-.076-.22h-.007l-.075.22z" fill="#fff"/><path d="M1.233 5.579h.009l-.004-.012-.005.012zm-.902.589l-.079-.23.207-.141H.204l-.075-.22H.122l-.076.22H.004A5.633 5.633 0 000 6l.001.112.124-.085.206.141z" fill="#fff"/><path d="M.122 5.579H.13l-.005-.012-.003.012zm3.688-.012l.079-.054-.06-.004-.02.058zm.413 0l-.012-.036-.044-.002.056.038zm-1.112 0l-.038-.11-.138-.011.176.121zm-.413.001l.183-.126-.136-.012-.047.138zm-1.033-.232l-.08.23.208-.142.207.142-.075-.217-.288-.032.028.019zm-1.063-.14H.346l.207.141-.079.23.207-.142.207.142-.08-.23.15-.102a36.973 36.973 0 01-.353-.048l-.003.009z" fill="#fff"/><path d="M7.645 5.576H5.389a45.575 45.575 0 002.256 0z" fill="#C40C3A"/><path d="M7.645 5.576H5.389a45.575 45.575 0 002.256 0z" fill="url(#paint1_linear_859_818)"/><path d="M5.338 5.575l.05.001h2.257c1.139-.029 2.248-.1 3.318-.21a5.51 5.51 0 00-.11-.636H5.337v.845z" fill="#fff"/><path d="M5.338 4.73h5.514a5.45 5.45 0 00-.274-.846h-5.24v.846z" fill="#C40C3A"/><path d="M5.338 3.885h5.24a5.503 5.503 0 00-.443-.846H5.338v.846z" fill="#fff"/><path d="M5.338 3.037h4.797a5.537 5.537 0 00-.667-.846h-4.13v.846z" fill="#C40C3A"/><path d="M5.338 2.191h4.13a5.518 5.518 0 00-1.037-.846H5.338v.846z" fill="#fff"/><path d="M5.338 1.346h3.093A5.473 5.473 0 005.338.503v.843z" fill="#C40C3A"/><path d="M.68 4.965l.08.23h.255l-.057.04c.224.029.45.057.68.083l-.18-.123h.256l.078-.23.08.23h.255l-.207.142.005.013c.27.029.544.055.82.08l.032-.093-.207-.142h.255l.08-.23.078.23h.256l-.207.142.041.12c.25.019.503.036.756.051l.06-.172-.207-.142h.255l.08-.23.078.23h.256l-.207.142.066.194c.373.02.749.034 1.128.044v-.845H4.7l-.008.005.08.23-.207-.142-.207.142.079-.23-.008-.005h-.84l-.008.005.079.23-.207-.142-.207.142.08-.23-.008-.005h-.841l-.008.005.079.23-.207-.142-.207.142.08-.23-.008-.005h-.841l-.008.005.079.23-.207-.142-.206.142.078-.23-.007-.005H.252l-.008.005.079.23-.198-.136c-.02.092-.037.184-.053.277.177.028.354.054.533.08l.076-.22z" fill="#2B3E75"/><path d="M2.881 5.44l.053.005-.03-.02-.023.015zm1.008.072l.278.016-.15-.104-.128.088zM.639 3.884H.422a4.51 4.51 0 00-.044.108h.224l.037-.108z" fill="#2B3E75"/><path d="M.45 4.594l-.198.136h.84l-.198-.136h.256l.079-.23.079.23h.255l-.199.136h.842l-.2-.136h.256l.079-.23.079.23h.255l-.199.136h.841l-.199-.136h.256l.079-.23.079.23h.255l-.2.136h.842l-.2-.136h.256l.079-.23.079.23h.256l-.2.136h.64v-.846h-1.28l.036.108h.256l-.206.142.079.23-.208-.142-.206.142.079-.23-.207-.142h.255l.037-.107H2.947l.036.107h.256l-.207.142.08.23-.208-.142-.206.142.08-.23-.208-.142h.255l.037-.108H1.835l.037.108h.255l-.207.142.08.23-.208-.142-.206.142.079-.23-.207-.142h.256l.037-.107H.723l.037.107h.255l-.207.142.08.23-.207-.142-.207.142.079-.23L.37 4.01a5.454 5.454 0 00-.184.562l.008.023H.45z" fill="#2B3E75"/><path d="M.68 3.762l.043.123H1.75l.042-.123.042.123h1.028l.042-.123.042.123h1.027l.043-.123.042.123h1.28v-.846H4.18l.042.122-.178-.122h-.057l-.178.122.042-.122h-.783l.042.122-.178-.122h-.057l-.178.122.042-.122h-.783L2 3.16l-.178-.122h-.057l-.178.122.042-.122H.865l-.013.02.035.102-.07-.048a5.476 5.476 0 00-.396.772h.217l.043-.123zm3.805-.371l.08-.23.078.23h.256l-.207.142.079.23-.207-.143-.207.142.08-.23-.207-.141h.255zm-1.112 0l.08-.23.078.23h.256l-.207.142.079.23-.207-.143-.207.142.08-.23-.207-.141h.255zm-1.112 0l.08-.23.078.23h.256l-.207.142.079.23-.207-.143-.207.142.08-.23-.207-.141h.255zm-1.112 0l.08-.23.078.23h.256l-.207.142.079.23-.207-.143-.206.142.079-.23-.207-.141h.255zm.615-.353h.058l-.03-.02-.028.02zm1.112 0h.057l-.029-.02-.028.02z" fill="#2B3E75"/><path d="M1.665 2.93l-.207-.142h.256l.078-.23.08.23h.255l-.207.141.037.108h.783l.037-.108-.207-.141h.255l.08-.23.078.23h.256l-.207.141.037.108h.783l.037-.108-.207-.141h.255l.08-.23.078.23h.256l-.207.141.037.108h1.157v-.846h-.447l-.2.137.08.23-.207-.142-.207.142.08-.23-.2-.137H3.78l-.2.137.08.23-.207-.142-.207.142.08-.23-.2-.137h-.458l-.199.137.079.23-.207-.142-.207.142.08-.23-.2-.137h-.458l-.068.046a4.73 4.73 0 00-.117.13l.065.19-.144-.098a5.502 5.502 0 00-.426.578h.763l.037-.108z" fill="#2B3E75"/><path d="M3.988 3.038h.057l-.029-.02-.028.02zm-2.433-.847h.458l-.007-.005h.255l.08-.23.078.23h.256l-.008.005h.458l-.007-.005h.255l.08-.23.078.23h.256l-.008.005h.458l-.007-.005h.255l.08-.23.078.23h.256l-.008.005h.447v-.846h-.57l.003.01-.013-.01h-.387l-.014.01.004-.01h-.705l.003.01-.014-.01H3.26l-.014.01.004-.01h-.681c-.218.138-.425.29-.622.457L2 1.956l-.13-.089a5.68 5.68 0 00-.333.32h.026l-.008.004zm2.382-.607l.08-.23.078.23h.256l-.206.142.08.23-.208-.142-.206.142.079-.23-.207-.142h.254zm-1.112 0l.08-.23.078.23h.256l-.207.142.079.23-.207-.142-.206.142.079-.23-.207-.142h.255z" fill="#2B3E75"/><path d="M3.787.984l-.207.142.076.22h.705l.075-.22L4.23.984h.255l.08-.23.078.23H4.9l-.207.142.076.22h.571V.504a5.477 5.477 0 00-1.844.375l.037.106h.255z" fill="#2B3E75"/><path d="M4.371 1.346h.386l-.193-.133-.193.133zm-1.112 0h.386l-.193-.133-.193.133zm.065-.22L3.17 1.02a5.505 5.505 0 00-.6.328h.68l.075-.22zm.072-.21a4.935 4.935 0 00-.155.066h.132l.023-.066z" fill="#2B3E75"/><path d="M4.77 1.355l-.002-.01h-.01l.013.01z" fill="#fff"/><path d="M4.77 1.355l-.002-.01h-.01l.013.01z" fill="url(#paint2_linear_859_818)"/><path d="M4.357 1.355l.014-.01h-.01l-.004.01z" fill="#fff"/><path d="M4.357 1.355l.014-.01h-.01l-.004.01z" fill="url(#paint3_linear_859_818)"/><path d="M4.899.982h-.256l-.079-.23-.079.23H4.23l.206.142-.075.22h.01l.193-.132.193.132h.01l-.075-.22.207-.142zm-1.24.373l-.003-.01h-.01l.013.01z" fill="#fff"/><path d="M3.659 1.355l-.003-.01h-.01l.013.01z" fill="url(#paint4_linear_859_818)"/><path d="M3.245 1.355l.014-.01h-.01l-.004.01z" fill="#fff"/><path d="M3.245 1.355l.014-.01h-.01l-.004.01z" fill="url(#paint5_linear_859_818)"/><path d="M3.249 1.346h.01l.193-.132.193.132h.01l-.075-.22.207-.142H3.53L3.495.877a4.876 4.876 0 00-.099.04l-.023.067h-.132l-.073.035.156.107-.075.22zm.561.609l.207-.142.206.142-.079-.23.207-.142h-.255l-.08-.23-.078.23h-.256l.207.142-.08.23zm-1.112 0l.207-.142.206.142-.079-.23.207-.142h-.256l-.078-.23-.08.23H2.57l.207.142-.08.23zm-.752-.152a6.874 6.874 0 00-.076.066l.13.089-.054-.155zm2.49.525l-.079.23.207-.143.207.143-.08-.23.2-.137h-.654l.2.137zm.207-.144l-.079-.23-.079.23H4.23l.007.006h.654l.008-.006h-.256zm-1.319.144l-.079.23.207-.143.207.143-.08-.23.2-.137h-.654l.2.137zm.207-.144l-.079-.23-.079.23h-.255l.007.006h.654l.008-.006H3.53zm-1.319.144l-.079.23.207-.143.207.143-.079-.23.2-.137h-.655l.2.137zm.208-.144l-.08-.23-.079.23h-.255l.007.006h.654l.008-.006h-.256zm-.932.053l.067-.046h-.024l-.043.046z" fill="#fff"/><path d="M1.488 2.237l.067-.046h-.024l-.043.046z" fill="url(#paint6_linear_859_818)"/><path d="M1.37 2.368l-.079.091.144.1-.065-.191zm.185-.176l.008-.005h-.027l-.005.005h.024z" fill="#fff"/><path d="M1.555 2.192l.008-.005h-.027l-.005.005h.024z" fill="url(#paint7_linear_859_818)"/><path d="M3.81 3.16l.178-.121h-.136l-.042.122zm.413 0l-.042-.121h-.136l.178.122zm-1.525 0l.178-.121H2.74l-.042.122zm.413 0l-.041-.12h-.136l.178.122zm.128-.374h-.256l-.078-.23-.08.23H2.57l.207.143-.037.107h.136l.029-.02.028.02h.136l-.037-.107.207-.143zm-1.653.374l.178-.121h-.136l-.042.122zm.414 0l-.043-.121h-.135L2 3.16zm.127-.374h-.255l-.08-.23-.078.23h-.256l.207.143-.037.107h.136l.028-.02.03.02h.135L1.92 2.93l.207-.143zm-1.275.272l-.034.055.069.048-.035-.103zm3.505.702l.207-.142.207.142-.079-.23.207-.142h-.256l-.079-.23-.079.23H4.23l.206.142-.079.23zm-1.112 0l.207-.142.207.142-.08-.23.208-.142H3.53l-.079-.23-.079.23h-.255l.206.142-.079.23zm-1.112 0l.207-.142.207.142-.079-.23.207-.142h-.256l-.079-.23-.079.23h-.255l.207.142-.08.23zm-1.111 0l.206-.142.207.142-.079-.23.207-.142h-.256l-.079-.23-.079.23H.894l.207.142-.08.23zm2.916.232h-.256l.207.142-.08.23.208-.142.206.142-.079-.23.207-.142h-.255l-.037-.108h-.084l-.037.108zm.036-.109h.085l-.043-.122-.042.122zm-1.148.109H2.57l.207.142-.08.23.208-.142.206.142-.079-.23.207-.142h-.256l-.036-.108h-.084l-.037.108zm.037-.109h.084l-.043-.122-.041.122zm-1.149.109h-.256l.207.142-.08.23.207-.142.207.142-.079-.23.207-.142h-.255l-.037-.108H1.75l-.037.108zm.036-.109h.085l-.042-.122-.042.122zm-1.276.481l.207-.142.206.142-.079-.23.207-.142H.76l-.037-.108H.639l-.037.108H.378l-.007.017.182.125-.08.23zm.165-.481h.084L.68 3.761l-.042.122zm3.797.852l-.079.23.207-.142.207.142-.08-.23.009-.005h-.271l.007.005zm.207-.142l-.079-.23-.079.23H4.23l.199.136h.27l.2-.136h-.256zm-1.319.142l-.079.23.207-.142.207.142-.08-.23.008-.005h-.27l.007.005zm.207-.142l-.079-.23-.079.23h-.255l.199.136h.27l.2-.136H3.53zm-1.319.142l-.079.23.207-.142.207.142-.08-.23.009-.005h-.271l.007.005zm.208-.142l-.08-.23-.079.23h-.255l.199.136h.27l.2-.136h-.256zm-1.32.142l-.078.23.206-.142.207.142-.079-.23.008-.005h-.27l.007.005zm.207-.142l-.079-.23-.079.23H.894l.199.136h.27l.2-.136h-.256zM.125 4.83l.198.135-.079-.23.008-.005H.148a3.987 3.987 0 00-.023.1z" fill="#fff"/><path d="M.252 4.73l.199-.136H.195l-.007-.022a5.512 5.512 0 00-.04.159h.104zm4.099.464h-.255l-.08-.23-.079.23h-.255l.207.142-.06.172.06.004.128-.088.15.104.044.002-.066-.194.206-.142zm-1.112 0h-.256l-.079-.23-.079.23H2.57l.206.142-.031.093.136.011.023-.016.03.02.138.012-.04-.12.207-.142zm-1.112 0h-.255l-.08-.23-.078.23h-.256l.18.123c.095.012.19.022.287.032l-.005-.013.207-.142zm-1.367 0l-.08-.23-.075.221.353.049.057-.04H.76z" fill="#fff"/><defs><linearGradient id="paint0_linear_859_818" x1="5.419" y1="5.591" x2="5.419" y2=".5" gradientUnits="userSpaceOnUse"><stop stop-color="#fff"/><stop offset="1"/></linearGradient><linearGradient id="paint1_linear_859_818" x1="6.517" y1="5.59" x2="6.517" y2=".498" gradientUnits="userSpaceOnUse"><stop stop-color="#fff"/><stop offset="1"/></linearGradient><linearGradient id="paint2_linear_859_818" x1="4.764" y1="5.59" x2="4.764" y2=".499" gradientUnits="userSpaceOnUse"><stop stop-color="#fff"/><stop offset="1"/></linearGradient><linearGradient id="paint3_linear_859_818" x1="4.364" y1="5.59" x2="4.364" y2=".499" gradientUnits="userSpaceOnUse"><stop stop-color="#fff"/><stop offset="1"/></linearGradient><linearGradient id="paint4_linear_859_818" x1="3.652" y1="5.59" x2="3.652" y2=".499" gradientUnits="userSpaceOnUse"><stop stop-color="#fff"/><stop offset="1"/></linearGradient><linearGradient id="paint5_linear_859_818" x1="3.252" y1="5.59" x2="3.252" y2=".499" gradientUnits="userSpaceOnUse"><stop stop-color="#fff"/><stop offset="1"/></linearGradient><linearGradient id="paint6_linear_859_818" x1="1.521" y1="5.59" x2="1.521" y2=".499" gradientUnits="userSpaceOnUse"><stop stop-color="#fff"/><stop offset="1"/></linearGradient><linearGradient id="paint7_linear_859_818" x1="1.547" y1="5.59" x2="1.547" y2=".5" gradientUnits="userSpaceOnUse"><stop stop-color="#fff"/><stop offset="1"/></linearGradient></defs></svg>