<svg width="11" height="11" fill="none" xmlns="http://www.w3.org/2000/svg"><rect x=".315" y=".315" width="10.37" height="10.37" rx="5.185" stroke="#000" stroke-width=".63"/><path d="M6.031 3.961a.77.77 0 100-1.54.77.77 0 000 1.54zm.789 3.123a.192.192 0 00-.27.055c-.186.276-.414.52-.675.726-.064.048-.3.23-.4.192-.07-.021-.03-.158-.016-.215l.102-.302c.042-.124.78-2.309.86-2.56.12-.365.067-.724-.477-.638-.148.016-1.65.21-1.678.212a.193.193 0 10.025.385s.577-.075.64-.081a.17.17 0 01.164.084.475.475 0 01-.013.33c-.05.192-.84 2.42-.866 2.548a.535.535 0 00.227.578.962.962 0 00.593.16c.204-.003.405-.044.594-.12.48-.192.98-.704 1.243-1.106a.192.192 0 00-.054-.248z" fill="#000"/></svg>