<svg width="60" height="11" fill="none" xmlns="http://www.w3.org/2000/svg"><rect x="49.315" y=".315" width="10.37" height="10.37" rx="5.185" stroke="#000" stroke-width=".63"/><path d="M55.031 3.961a.77.77 0 100-1.54.77.77 0 000 1.54zm.789 3.123a.193.193 0 00-.27.055c-.186.276-.414.52-.675.726-.064.048-.3.23-.4.192-.07-.021-.03-.158-.016-.215l.102-.302c.042-.124.78-2.309.86-2.56.12-.365.067-.724-.477-.638-.148.016-1.65.21-1.678.212a.193.193 0 00.025.385s.577-.075.64-.081a.17.17 0 01.164.084.475.475 0 01-.013.33c-.05.192-.84 2.42-.866 2.548a.535.535 0 00.227.578.962.962 0 00.593.16 1.64 1.64 0 00.594-.12c.48-.192.98-.704 1.243-1.106a.192.192 0 00-.054-.248z" fill="#000"/><path d="M7.918 1H5.703c0 1.81-.835 3.462-2.285 4.55l-.875.653 3.398 4.61h2.792l-3.13-4.244A7.781 7.781 0 007.918 1zM0 1h2.265v9.812H0V1zm9.388 0h2.136v9.812H9.388V1zm20.873 2.839c-.814 0-1.59.247-2.106.95v-.762h-2.027v6.785h2.057v-3.56c0-1.03.695-1.534 1.53-1.534.894 0 1.41.534 1.41 1.523v3.581h2.037V6.5c0-1.583-1.262-2.661-2.9-2.661zm-12.28.188v.435a3.558 3.558 0 00-2.026-.623 3.588 3.588 0 00-3.596 3.58A3.588 3.588 0 0015.955 11c.755 0 1.45-.227 2.027-.623v.435h2.037V4.027h-2.037zM16.125 9.16c-1.023 0-1.848-.781-1.848-1.74 0-.96.825-1.741 1.848-1.741 1.023 0 1.848.78 1.848 1.74s-.825 1.741-1.848 1.741zm7.054-4.253v-.88H21.09v6.785h2.097V7.647c0-1.068 1.162-1.642 1.967-1.642h.02V4.027c-.825 0-1.59.356-1.997.88zm16.322-.88v.435a3.558 3.558 0 00-2.026-.623 3.588 3.588 0 00-3.597 3.58A3.588 3.588 0 0037.475 11c.755 0 1.45-.227 2.026-.623v.435h2.037V4.027H39.5zM37.643 9.16c-1.024 0-1.848-.781-1.848-1.74 0-.96.824-1.741 1.848-1.741 1.023 0 1.847.78 1.847 1.74.01.96-.824 1.741-1.847 1.741zm5.474-4.935c0-.1-.07-.159-.18-.159h-.188v.515h.09v-.188h.099l.08.188h.099l-.09-.208c.06-.03.09-.08.09-.148zm-.18.079h-.098v-.159h.099c.06 0 .09.03.09.08 0 .049-.02.079-.09.079z" fill="#101010"/><path d="M43.604 3.888a.487.487 0 00-.487.485c.01.267.219.485.487.485a.487.487 0 00.487-.485.487.487 0 00-.487-.485zm0 .88a.39.39 0 01-.387-.395c0-.218.178-.396.387-.396a.39.39 0 01.387.396.396.396 0 01-.387.396zm.805 3.68c-.706 0-1.282.574-1.282 1.276a1.282 1.282 0 002.563 0c0-.712-.576-1.276-1.281-1.276z" fill="#101010"/></svg>