<svg width="176" height="30" fill="none" xmlns="http://www.w3.org/2000/svg"><g clip-path="url(#clip0_859_110)" fill="#1D1D1B"><path d="M5.455 7.862c.607.004 1.213.043 1.816.116.638.07 1.26.24 1.846.503a3.835 3.835 0 011.427 1.112c.384.483.577 1.13.578 1.942a2.743 2.743 0 01-.65 1.748c-.435.538-1.127.968-2.078 1.29a6.686 6.686 0 011.691.477c.398.173.758.422 1.06.734.26.276.449.61.554.975.107.382.16.778.157 1.175 0 .784-.18 1.424-.538 1.92a3.638 3.638 0 01-1.367 1.154 6.124 6.124 0 01-1.857.557c-.668.096-1.342.145-2.017.146H1.883V10.38c0-.628-.088-1.135-.263-1.521-.174-.387-.578-.579-1.21-.577H0v-.42h5.455zm.315 6.4c.414 0 .826-.06 1.222-.178a3.348 3.348 0 001.076-.538 2.8 2.8 0 00.767-.882c.202-.38.303-.804.293-1.234a2.27 2.27 0 00-.357-1.291 3.013 3.013 0 00-.902-.88 3.917 3.917 0 00-1.217-.505 5.462 5.462 0 00-2.13-.094c-.25.035-.5.084-.745.146v5.456H5.77zm-1.993.84v5.58a6.937 6.937 0 001.993.294c1.274.001 2.257-.25 2.949-.755.692-.503 1.038-1.23 1.038-2.182 0-.951-.336-1.679-1.007-2.183-.672-.503-1.665-.755-2.98-.754H3.777zm19.535-7.24c.304-.01.607.04.892.147.208.082.395.212.546.378.13.155.223.34.269.538.048.202.072.41.072.618v1.572h-.42c0-.84-.227-1.452-.681-1.837-.455-.384-1.1-.577-1.938-.577h-3.9v5.456h5.666v.84h-5.665v5.875h3.672c.951 0 1.703-.175 2.255-.524.552-.35.99-.945 1.312-1.785l.42.105-.734 1.994a1.562 1.562 0 01-.557.765 1.68 1.68 0 01-1.018.284h-7.241V10.38c0-.628-.09-1.135-.269-1.521-.18-.387-.583-.579-1.21-.577h-.42v-.42h8.95zm8.542 13.01h7.45v.84h-9.339V10.378c0-.627-.09-1.134-.269-1.52-.18-.387-.583-.58-1.21-.577h-.42v-.42h1.883a3.72 3.72 0 01.913.094c.24.053.454.188.605.38.164.23.268.497.304.777.063.42.091.844.085 1.27l-.002 10.489zm12.632 0h7.45v.84h-9.338V10.38a3.713 3.713 0 00-.269-1.521c-.175-.385-.578-.577-1.21-.577h-.42v-.42h1.883c.306-.006.613.026.911.095.24.053.453.187.604.38.164.23.27.496.306.776.061.42.09.845.083 1.27v10.49zm22.807.839a2.99 2.99 0 01-.84.105 4.879 4.879 0 01-.828-.083 3.02 3.02 0 01-.965-.367 3.815 3.815 0 01-.966-.83 4.709 4.709 0 01-.807-1.448l-.524-1.364h-5.876l-1.678 3.987h-.942l5.877-13.85h.632l4.609 11.233c.169.393.326.726.472.998.127.246.293.47.494.66.17.162.37.29.587.378.242.092.496.149.755.168v.413zm-10.489-4.826h5.14l-2.52-6.085-2.62 6.085zm61.742 1.888c.35-.806.64-1.47.87-1.992.231-.522.42-.956.568-1.302l.367-.88c.098-.239.195-.473.293-.704.098-.231.203-.486.315-.765.111-.28.269-.644.451-1.092.183-.448.423-1.003.704-1.668.281-.664.629-1.5 1.049-2.507h1.007l-6.023 14.056h-.378l-4.868-11.604a12.776 12.776 0 00-.472-.997 2.53 2.53 0 00-.493-.66 1.896 1.896 0 00-.588-.379 2.764 2.764 0 00-.754-.168v-.416c.055 0 .164 0 .325-.022.162-.021.289-.02.387-.02.289.004.577.031.861.083.343.064.673.185.976.358.363.21.689.48.964.796.361.425.649.908.85 1.428l3.589 8.455zm11.521 2.099h7.45v.84h-9.339V10.378c0-.627-.09-1.134-.269-1.52-.179-.387-.583-.58-1.21-.577h-.42v-.42h1.883a3.72 3.72 0 01.913.094c.239.053.453.188.604.38.163.23.268.497.304.777.062.42.091.844.084 1.27v10.489zm22.81.839c-.273.075-.555.11-.839.105a4.872 4.872 0 01-.828-.083 3.019 3.019 0 01-.965-.367 3.798 3.798 0 01-.966-.83 4.688 4.688 0 01-.807-1.448l-.524-1.364h-5.875l-1.686 3.987h-.942l5.875-13.85h.631l4.619 11.233c.168.393.326.726.472.998a2.5 2.5 0 00.492.66c.171.161.37.29.588.378.242.092.497.149.755.168v.413zm-10.488-4.826h5.141l-2.519-6.085-2.622 6.085zm17.076-9.023c1.385 0 2.595.161 3.631.483a7.073 7.073 0 012.57 1.364 5.553 5.553 0 011.531 2.151c.354.905.529 1.87.515 2.843a7.87 7.87 0 01-.493 2.824 5.964 5.964 0 01-1.459 2.213 6.781 6.781 0 01-2.402 1.448c-.958.35-2.074.525-3.347.525h-4.155V10.38c0-.628-.09-1.135-.269-1.521-.179-.387-.583-.579-1.21-.577h-.41v-.42h5.498zm-1.613 12.842c.698.165 1.411.255 2.128.269a5.396 5.396 0 002.152-.43 4.931 4.931 0 001.732-1.239 5.872 5.872 0 001.147-1.95c.289-.826.43-1.696.418-2.57a7.5 7.5 0 00-.403-2.53 5.887 5.887 0 00-1.138-1.962 4.945 4.945 0 00-1.748-1.258 5.437 5.437 0 00-2.201-.442c-.332.003-.664.03-.991.084-.371.06-.737.145-1.096.253v11.775zm13.972-12.842h1.883v11.33c0 .631.086 1.138.269 1.523.183.384.577.577 1.21.577h.419v.42h-1.882a3.723 3.723 0 01-.913-.095 1.06 1.06 0 01-.588-.378 1.709 1.709 0 01-.304-.766 7.723 7.723 0 01-.084-1.28l-.01-11.33zM88.989 0a15 15 0 1015.001 15A15.015 15.015 0 0088.989 0zm0 28.082A13.082 13.082 0 11102.07 15a13.097 13.097 0 01-13.082 13.082z"/><path d="M83.361 22.544h.082l-.082-.078v.078zm7.966-15.417a6.212 6.212 0 00-.863-.117L86.5 6.992l3.609.016c.409 0 .817.039 1.218.119zm.421.098c.108.031.218.065.328.105-.11-.04-.22-.069-.328-.105zM89.59 15.58l.044-.052c-.014.018-.03.035-.044.051zm1.785-8.453c.1.021.202.046.305.074a11.373 11.373 0 01-.305-.074zm-1.977 8.723l-4.417 4.81 4.415-4.81h.002z"/><path opacity=".32" d="M89.59 15.63c-.065.075-.135.149-.194.22.069-.074.13-.148.194-.22zm.355-.435c.054-.073.107-.147.159-.22l-.159.22zm1.399-8.068h-.018l.027.005-.008-.005z"/><path d="M93.966 10.292a3.654 3.654 0 00-.612-1.651A3.45 3.45 0 0091.68 7.33a5.107 5.107 0 00-.328-.105l-.069-.02a5.91 5.91 0 00-.305-.074h-.01l-.037-.008c-.054-.011-.11-.02-.164-.029l-.112-.02a3.317 3.317 0 00-.206-.025l-.106-.014c-.048 0-.095-.008-.142-.01l-.175-.013h-.314l-3.609-.02h-.326l-.015 1.14 2.502.011c.768.063 2.19.382 2.742 1.836.024.062.044.125.06.19.11.403.27 1.411-.295 2.806-.026.07-.054.134-.082.208-.028.074-.042.112-.065.167-.035.085-.074.167-.113.25 0 0-.111.194-.292.485a17.324 17.324 0 01-1.965 2.588L84.58 20.66l-.28.304V10.79a5.422 5.422 0 00-.061-.906 1.334 1.334 0 00-.15-.444.752.752 0 00-.481-.368 2.66 2.66 0 00-.641-.064h-1.345v.296h.297c.448 0 .733.135.854.403.052.121.091.248.117.377.048.23.07.465.068.7V22.62h1.219l8.014-8.15.269-.281c.042-.043.198-.228.246-.286v-.007l.124-.147a.092.092 0 01.015-.018l.115-.134c.22-.265.413-.552.574-.857a4.123 4.123 0 00.43-2.447zm3.32 7.109c0-.07-.008-.134-.015-.207a4.659 4.659 0 00-.111-.703 3.935 3.935 0 00-.369-.982l-.039-.07-.036-.059c-.732-1.192-1.983-1.573-2.578-1.689l-1.355 1.4a3.496 3.496 0 01-1.87 6.443h-4.391l-1.1 1.132h5.814c1.721 0 3.042-.436 4.076-1.227.987-.755 1.614-1.688 1.862-2.775.081-.349.12-.706.117-1.064l-.005-.199z"/></g><defs><clipPath id="clip0_859_110"><path fill="#fff" d="M0 0h175.602v30H0z"/></clipPath></defs></svg>