<svg width="29" height="29" fill="none" xmlns="http://www.w3.org/2000/svg"><path d="M23.564 11.78c0 2.599-.844 5-2.266 6.948l7.171 7.176a1.815 1.815 0 01-2.566 2.565l-7.171-7.175a11.716 11.716 0 01-6.95 2.265C5.274 23.559 0 18.287 0 11.779 0 5.273 5.274 0 11.782 0s11.782 5.272 11.782 11.78zm-13.142 4.983c0 .753.606 1.36 1.36 1.36.753 0 1.36-.607 1.36-1.36V13.14h3.624c.754 0 1.36-.606 1.36-1.36 0-.753-.606-1.359-1.36-1.359h-3.625V6.796c0-.753-.606-1.36-1.36-1.36-.753 0-1.359.607-1.359 1.36v3.624H6.797c-.753 0-1.36.606-1.36 1.36 0 .753.607 1.359 1.36 1.359h3.625v3.624z" fill="#87C4EF"/></svg>